<?xml version="1.0" standalone="no"?>
<svg xmlns:xlink="http://www.w3.org/1999/xlink" id="wave" style="transform:rotate(0deg); transition: 0.3s" viewBox="0 0 1440 120" version="1.1" xmlns="http://www.w3.org/2000/svg"><defs><linearGradient id="sw-gradient-0" x1="0" x2="0" y1="1" y2="0"><stop stop-color="rgba(18, 79, 136, 1)" offset="0%"/><stop stop-color="rgba(18, 79, 136, 1)" offset="100%"/></linearGradient></defs><path style="transform:translate(0, 0px); opacity:1" fill="url(#sw-gradient-0)" d="M0,48L60,42C120,36,240,24,360,34C480,44,600,76,720,82C840,88,960,68,1080,62C1200,56,1320,64,1440,70C1560,76,1680,80,1800,68C1920,56,2040,28,2160,24C2280,20,2400,40,2520,48C2640,56,2760,52,2880,46C3000,40,3120,32,3240,42C3360,52,3480,80,3600,92C3720,104,3840,100,3960,98C4080,96,4200,96,4320,88C4440,80,4560,64,4680,52C4800,40,4920,32,5040,42C5160,52,5280,80,5400,86C5520,92,5640,76,5760,72C5880,68,6000,76,6120,70C6240,64,6360,44,6480,34C6600,24,6720,24,6840,20C6960,16,7080,8,7200,16C7320,24,7440,48,7560,50C7680,52,7800,32,7920,20C8040,8,8160,4,8280,8C8400,12,8520,24,8580,30L8640,36L8640,120L8580,120C8520,120,8400,120,8280,120C8160,120,8040,120,7920,120C7800,120,7680,120,7560,120C7440,120,7320,120,7200,120C7080,120,6960,120,6840,120C6720,120,6600,120,6480,120C6360,120,6240,120,6120,120C6000,120,5880,120,5760,120C5640,120,5520,120,5400,120C5280,120,5160,120,5040,120C4920,120,4800,120,4680,120C4560,120,4440,120,4320,120C4200,120,4080,120,3960,120C3840,120,3720,120,3600,120C3480,120,3360,120,3240,120C3120,120,3000,120,2880,120C2760,120,2640,120,2520,120C2400,120,2280,120,2160,120C2040,120,1920,120,1800,120C1680,120,1560,120,1440,120C1320,120,1200,120,1080,120C960,120,840,120,720,120C600,120,480,120,360,120C240,120,120,120,60,120L0,120Z"/></svg>